<?xml version="1.0" ?>
<!-- Uploaded to: SVG Repo, www.svgrepo.com, Generator: SVG Repo Mixer Tools -->
<svg width="800px" height="800px" viewBox="0 0 96 96" version="1.1" xml:space="preserve" xmlns="http://www.w3.org/2000/svg" xmlns:xlink="http://www.w3.org/1999/xlink">
<style type="text/css">
	.st0{display:none;}
	.st1{fill:#FFFFFF;}
	.st2{fill:none;stroke:#000000;stroke-width:2;stroke-linecap:round;stroke-linejoin:round;stroke-miterlimit:10;}
	.st3{fill:#FFF8FA;}
	.st4{stroke:#000000;stroke-width:2;stroke-miterlimit:10;}
	.st5{fill:none;stroke:#000000;stroke-miterlimit:10;}
	.st6{fill:none;stroke:#000000;stroke-width:2;stroke-linecap:round;stroke-miterlimit:10;}
	.st7{fill:#231F20;stroke:#000000;stroke-width:0;stroke-miterlimit:10;}
	.st8{fill:#FF0D5C;}
	.st9{display:inline;}
	.st10{fill:none;stroke:#00D8E9;stroke-width:0.25;stroke-linecap:round;stroke-linejoin:round;stroke-miterlimit:10;}
	.st11{fill:none;stroke:#00D8E9;stroke-width:0.25;stroke-linejoin:round;stroke-miterlimit:10;}
	.st12{fill:none;stroke:#00D8E9;stroke-linecap:round;stroke-linejoin:round;stroke-miterlimit:10;}
	.st13{fill:none;stroke:#00D8E9;stroke-linejoin:round;stroke-miterlimit:10;}
</style>
<g id="banana"/>
<g id="Layer_12"/>
<g id="grape"/>
<g id="assasin"/>
<g id="gold"/>
<g id="mage_ass"/>
<g id="fighter"/>
<g id="SUPPORT"/>
<g id="marksman"/>
<g id="JUNGLE"/>
<g id="TANK"/>
<g class="st0" id="creditcard"/>
<g class="st0" id="CAKE"/>
<g class="st0" id="TOPI"/>
<g class="st0" id="SPATU"/>
<g class="st0" id="SETTING"/>
<g class="st0" id="CART"/>
<g class="st0" id="k3"/>
<g class="st0" id="computer"/>
<g class="st0" id="phone"/>
<g class="st0" id="location"/>
<g id="koper">
<g id="Layer_29"/>
<path d="M53.8,25.4c0,0,0.1,0,0.1,0l8.5-2c1.4,0.1,2.6,1.2,2.7,2.7l-0.2,0.4c-1,2.1-0.9,4.6,0.2,6.7c-0.1,1.4-1.3,2.6-2.7,2.7   L54,33.2c-0.1,0-0.1,0-0.2,0c-0.4-0.1-0.8-0.3-0.8-0.7v-6.1c0,0,0,0,0,0V26C53,25.7,53.3,25.4,53.8,25.4z M51.5,49.8   c-0.6-5.2-1.3-12.1-1.5-14.8h0.7c0,0,0.1,0,0.1,0l1.4,3.9c0,0,0,0,0,0l3.8,10.2C55.7,49.1,55.4,49,55,49   C53.8,48.9,52.6,49.1,51.5,49.8z M53,35c0.2,0.1,0.3,0.1,0.5,0.1l8.2,2.5h-7.7L53,35z M44.2,26h6.5c0.1,0,0.3,0.2,0.3,0.4v6.1   c0,0,0,0,0,0v0.1c0,0.2-0.2,0.4-0.3,0.4h-6.5c-0.1,0-0.3-0.2-0.3-0.4v-0.2v-6.1C43.9,26.1,44.1,26,44.2,26z M43.7,49.8   c-0.1-0.1-0.2-0.1-0.4-0.2c0,0,0,0-0.1,0c0,0,0,0,0,0c-1.6-0.8-3-0.8-4.1-0.4l3.7-10.1C43,39,43,38.9,43,38.8l1.4-3.7h0.9   c-0.1,0.8-0.2,2-0.3,3.4C44.5,43.1,44.1,46.9,43.7,49.8z M42.3,34.8l-1,2.7h-8l8.2-2.5C41.8,35.1,42.1,35,42.3,34.8z M29.9,26   c0.1-1.5,1.3-2.6,2.7-2.7l8.5,2c0,0,0.1,0,0.1,0c0.4,0.1,0.8,0.4,0.8,0.7v0.4v6.1c0,0.3-0.3,0.6-0.8,0.7c-0.1,0-0.1,0-0.2,0   l-8.5,2.5c-1.4-0.1-2.6-1.2-2.7-2.7C30.9,30.8,30.9,28.2,29.9,26z M21.4,27.8h7c0.4,1.5,0.3,3.1-0.5,4.5c-0.1,0.1-0.1,0.3-0.1,0.4   c0,2.3,1.6,4.2,3.7,4.7h-7.2h-2.9V27.8z M25.4,39.6h15.2l-4.3,11.7c-0.2,0.5,0,1,0.4,1.2s1,0.1,1.3-0.2c0.2-0.2,1.7-1.9,3.9-1.1   v25.3H25.4V39.6z M43.9,76.4V52.4c0.2,0.1,0.4,0.2,0.6,0.2c0.1,0,0.2,0,0.4-0.1c0.3-0.1,0.6-0.4,0.6-0.8c0.4-3,0.9-7.4,1.4-13.1   c0.1-1.5,0.3-2.8,0.3-3.6H48c0.2,2.8,1,11.2,1.8,16.7c0,0.4,0.3,0.7,0.6,0.8c0.2,0.1,0.4,0.1,0.6,0v23.9H43.9z M70.1,76.4H53V51.3   c0.6-0.3,1.2-0.4,1.8-0.3c1.5,0.1,2.5,1.3,2.5,1.3c0.2,0.2,0.5,0.4,0.8,0.4c0.2,0,0.3,0,0.5-0.1c0.4-0.2,0.6-0.8,0.4-1.2l-4.3-11.7   h15.5V76.4z M74.6,37.6h-3.5h-7.7c2.1-0.5,3.7-2.4,3.7-4.7c0-0.2-0.1-0.4-0.1-0.5c-0.8-1.3-0.9-3-0.5-4.5h8.1V37.6z"/>
</g>
<g class="st0" id="guide">
<g class="st9">
<ellipse class="st10" cx="-10.5" cy="106.5" rx="12.7" ry="12.7" transform="matrix(0.9985 -5.530002e-02 5.530002e-02 0.9985 -5.9055 -0.4177)"/>
<g>
<path class="st11" d="M21,106c0-17.7-14.3-32-32-32c-17.7,0-32,14.3-32,32c0,17.7,14.3,32,32,32C6.7,138,21,123.7,21,106z"/>
<g>
<path class="st10" d="M37.5,106c0,26.2-21.3,47.5-47.5,47.5c-26.2,0-47.5-21.3-47.5-47.5S-36.2,58.5-10,58.5      C16.2,58.5,37.5,79.8,37.5,106z"/>
</g>
<circle class="st10" cx="-10" cy="106" r="43.5"/>
<circle class="st10" cx="-10" cy="106" r="39.3"/>
<line class="st10" x1="22.5" x2="-43.5" y1="139.5" y2="73.5"/>
<line class="st10" x1="-44" x2="23" y1="140" y2="73"/>
<circle class="st10" cx="-10" cy="106" r="22.5"/>
</g>
</g>
</g>
<g id="MAGICAL"/>
<g id="phisical"/>
<g id="mango"/>
<g id="orange"/>
</svg>